<svg width="20" height="20" viewBox="0 0 20 20" fill="none" xmlns="http://www.w3.org/2000/svg">
<path d="M2.50836 9.35001V13.0917C2.50836 16.8333 4.00836 18.3333 7.75003 18.3333H12.2417C15.9834 18.3333 17.4834 16.8333 17.4834 13.0917V9.35001" stroke="white" stroke-width="1.5" stroke-linecap="round" stroke-linejoin="round"/>
<path d="M9.99999 9.99999C11.525 9.99999 12.65 8.75832 12.5 7.23332L11.95 1.66666H8.05832L7.49999 7.23332C7.34999 8.75832 8.47499 9.99999 9.99999 9.99999Z" stroke="white" stroke-width="1.5" stroke-linecap="round" stroke-linejoin="round"/>
<path d="M15.2584 9.99999C16.9417 9.99999 18.175 8.63332 18.0084 6.95832L17.775 4.66666C17.475 2.49999 16.6417 1.66666 14.4584 1.66666H11.9167L12.5 7.50832C12.6417 8.88332 13.8834 9.99999 15.2584 9.99999ZM4.70002 9.99999C6.07502 9.99999 7.31669 8.88332 7.45002 7.50832L7.63336 5.66666L8.03336 1.66666H5.49169C3.30836 1.66666 2.47502 2.49999 2.17502 4.66666L1.95002 6.95832C1.78336 8.63332 3.01669 9.99999 4.70002 9.99999ZM10 14.1667C8.60836 14.1667 7.91669 14.8583 7.91669 16.25V18.3333H12.0834V16.25C12.0834 14.8583 11.3917 14.1667 10 14.1667Z" stroke="white" stroke-width="1.5" stroke-linecap="round" stroke-linejoin="round"/>
</svg>
